<svg width="190.21284179687498px" height="154.79999999999998px" xmlns="http://www.w3.org/2000/svg" viewBox="145.39357910156252 -3.3999999999999915 209.21284179687498 156.79999999999998" style="background: none;" preserveAspectRatio="xMidYMid"><defs><filter id="editing-extrusion" x="-100%" y="-100%" width="300%" height="300%"><feFlood result="color1" flood-color="#ffffff"></feFlood><feConvolveMatrix order="8,8" divisor="1" kernelMatrix="1 0 0 0 0 0 0 0 0 1 0 0 0 0 0 0 0 0 1 0 0 0 0 0 0 0 0 1 0 0 0 0 0 0 0 0 1 0 0 0 0 0 0 0 0 1 0 0 0 0 0 0 0 0 1 0 0 0 0 0 0 0 0 1" in="SourceAlpha" result="extrude"></feConvolveMatrix><feComposite in="color1" in2="extrude" result="comp-extrude" operator="in"></feComposite><feOffset dx="4" dy="4" in="comp-extrude" result="offset-extrude"></feOffset><feMerge><feMergeNode in="offset-extrude"></feMergeNode><feMergeNode in="SourceGraphic"></feMergeNode></feMerge></filter></defs><g filter="url(#editing-extrusion)"><g transform="translate(186.8060827255249, 121.02000045776367)"><path d="M12.03 1.76L12.03 1.76L12.03 1.76Q8.45 1.76 6.63 0L6.63 0L6.63 0Q4.81-1.76 4.81-4.88L4.81-4.88L4.94-6.31L4.94-6.31Q4.94-6.83 4.68-6.83L4.68-6.83L4.29-6.57L4.29-6.57Q2.73-3.97 1.04-1.79L1.04-1.79L1.04-1.79Q-0.65 0.39-1.56 1.30L-1.56 1.30L-2.47 2.15L-2.47 2.15Q-3.38 2.99-3.83 2.99L-3.83 2.99L-3.83 2.99Q-4.29 2.99-4.29 2.21L-4.29 2.21L-4.29 2.21Q-4.29 1.17-3.64-0.33L-3.64-0.33L-3.64-0.33Q-2.67-2.47-0.94-6.08L-0.94-6.08L-0.94-6.08Q0.78-9.69 5.95-18.88L5.95-18.88L5.95-18.88Q11.12-28.08 15.99-35.10L15.99-35.10L15.99-35.10Q20.93-42.25 23.66-44.85L23.66-44.85L23.66-44.85Q24.64-45.83 25.16-45.83L25.16-45.83L25.16-45.83Q25.48-45.83 25.48-45.30L25.48-45.30L25.48-45.30Q25.48-45.18 25.35-44.40L25.35-44.40L25.35-44.40Q24.77-41.80 20.73-34.84L20.73-34.84L20.73-34.84Q12.68-21.71 9.04-13.52L9.04-13.52L9.04-13.52Q6.63-8.91 6.63-5.00L6.63-5.00L6.63-5.00Q6.63-2.79 7.80-1.40L7.80-1.40L7.80-1.40Q8.97 0 11.05 0L11.05 0L11.05 0Q14.04 0 16.87-2.41L16.87-2.41L16.87-2.41Q19.70-4.81 21.58-8.19L21.58-8.19L21.58-8.19Q23.46-11.57 24.64-15.08L24.64-15.08L24.64-15.08Q25.80-18.59 25.80-21.00L25.80-21.00L25.80-21.00Q25.80-26.78 20.48-28.02L20.48-28.02L20.48-28.02Q20.41-28.28 20.41-28.54L20.41-28.54L20.41-28.54Q20.41-29.32 21.32-29.45L21.32-29.45L21.32-29.45Q26.32-29.45 30.23-33.18L30.23-33.18L30.23-33.18Q34.13-36.92 34.13-41.80L34.13-41.80L34.13-41.80Q34.13-44.52 32.11-46.64L32.11-46.64L32.11-46.64Q30.10-48.75 24.64-48.75L24.64-48.75L24.64-48.75Q18.72-48.75 15.08-45.50L15.08-45.50L15.08-45.50Q11.44-42.25 11.44-38.09L11.44-38.09L11.44-38.09Q11.44-36.92 11.89-35.95L11.89-35.95L11.89-35.95Q12.16-35.43 12.16-35.10L12.16-35.10L12.16-35.10Q12.16-34.71 11.77-34.71L11.77-34.71L11.77-34.71Q11.44-34.71 11.18-34.84L11.18-34.84L11.18-34.84Q10.72-35.04 10.08-35.36L10.08-35.36L10.08-35.36Q9.43-35.69 8.35-36.98L8.35-36.98L8.35-36.98Q7.28-38.29 7.28-39.84L7.28-39.84L7.28-39.84Q7.28-44.13 12.54-47.22L12.54-47.22L12.54-47.22Q17.81-50.31 25.29-50.31L25.29-50.31L25.29-50.31Q26.07-50.31 27.07-50.25L27.07-50.25L27.07-50.25Q28.08-50.18 30.36-49.66L30.36-49.66L30.36-49.66Q32.63-49.14 34.35-48.26L34.35-48.26L34.35-48.26Q36.08-47.39 37.44-45.50L37.44-45.50L37.44-45.50Q38.80-43.62 38.80-41.08L38.80-41.08L38.80-41.08Q38.80-38.41 37.54-36.17L37.54-36.17L37.54-36.17Q36.27-33.93 34.16-32.40L34.16-32.40L34.16-32.40Q32.05-30.88 29.74-29.90L29.74-29.90L29.74-29.90Q27.43-28.93 24.96-28.41L24.96-28.41L24.96-28.41Q24.51-28.21 24.51-28.02L24.51-28.02L24.51-28.02Q24.51-27.89 24.89-27.69L24.89-27.69L24.89-27.69Q25.09-27.56 25.48-27.37L25.48-27.37L25.48-27.37Q25.87-27.17 26.81-26.32L26.81-26.32L26.81-26.32Q27.76-25.48 28.50-24.47L28.50-24.47L28.50-24.47Q29.25-23.46 29.84-21.71L29.84-21.71L29.84-21.71Q30.42-19.96 30.42-18.00L30.42-18.00L30.42-18.00Q30.42-10.53 24.86-4.39L24.86-4.39L24.86-4.39Q19.30 1.76 12.03 1.76ZM47.06-22.04L47.06-22.04L47.06-22.04Q47.84-23.66 47.84-24.89L47.84-24.89L47.84-24.89Q47.84-25.94 47.19-25.94L47.19-25.94L47.19-25.94Q46.80-25.94 46.31-25.71L46.31-25.71L46.31-25.71Q45.83-25.48 45.56-25.22L45.56-25.22L45.24-24.96L45.24-24.96Q43.23-23.21 40.20-18.56L40.20-18.56L40.20-18.56Q37.18-13.91 37.18-12.61L37.18-12.61L37.18-12.61Q37.18-12.35 37.31-12.35L37.31-12.35L37.31-12.35Q37.70-12.35 39.03-13L39.03-13L39.03-13Q40.37-13.65 42.87-16.05L42.87-16.05L42.87-16.05Q45.37-18.46 47.06-22.04ZM44.14-7.15L44.14-7.15L44.14-7.15Q47.58-10.34 54.02-17.68L54.02-17.68L54.02-17.68Q54.21-17.88 54.34-17.88L54.34-17.88L54.34-17.88Q54.47-17.88 54.47-17.62L54.47-17.62L54.47-17.62Q54.47-16.38 53.50-15.21L53.50-15.21L53.50-15.21Q48.69-9.88 44.98-6.31L44.98-6.31L44.98-6.31Q42.25-3.58 38.48-1.07L38.48-1.07L38.48-1.07Q34.71 1.43 32.24 1.43L32.24 1.43L32.24 1.43Q29.25 1.43 29.25-2.73L29.25-2.73L29.25-2.73Q29.25-9.62 34.35-17.16L34.35-17.16L34.35-17.16Q39.45-24.70 46.15-27.37L46.15-27.37L46.15-27.37Q48.95-28.54 51.22-28.54L51.22-28.54L51.22-28.54Q53.76-28.54 53.76-26.52L53.76-26.52L53.76-26.52Q53.76-22.75 48.43-17.88L48.43-17.88L48.43-17.88Q43.09-13 36.47-10.46L36.47-10.46L36.47-10.46Q36.21-10.40 36.01-10.01L36.01-10.01L36.01-10.01Q35.04-7.35 35.04-5.27L35.04-5.27L35.04-5.27Q35.04-2.93 36.79-2.93L36.79-2.93L36.79-2.93Q39.59-2.93 44.14-7.15ZM65.72-22.04L65.72-22.04L65.72-22.04Q66.50-23.66 66.50-24.89L66.50-24.89L66.50-24.89Q66.50-25.94 65.84-25.94L65.84-25.94L65.84-25.94Q65.46-25.94 64.97-25.71L64.97-25.71L64.97-25.71Q64.48-25.48 64.22-25.22L64.22-25.22L63.90-24.96L63.90-24.96Q61.88-23.21 58.86-18.56L58.86-18.56L58.86-18.56Q55.84-13.91 55.84-12.61L55.84-12.61L55.84-12.61Q55.84-12.35 55.97-12.35L55.97-12.35L55.97-12.35Q56.36-12.35 57.69-13L57.69-13L57.69-13Q59.02-13.65 61.52-16.05L61.52-16.05L61.52-16.05Q64.03-18.46 65.72-22.04ZM62.79-7.15L62.79-7.15L62.79-7.15Q66.23-10.34 72.67-17.68L72.67-17.68L72.67-17.68Q72.87-17.88 73.00-17.88L73.00-17.88L73.00-17.88Q73.13-17.88 73.13-17.62L73.13-17.62L73.13-17.62Q73.13-16.38 72.15-15.21L72.15-15.21L72.15-15.21Q67.34-9.88 63.64-6.31L63.64-6.31L63.64-6.31Q60.91-3.58 57.14-1.07L57.14-1.07L57.14-1.07Q53.37 1.43 50.90 1.43L50.90 1.43L50.90 1.43Q47.91 1.43 47.91-2.73L47.91-2.73L47.91-2.73Q47.91-9.62 53.01-17.16L53.01-17.16L53.01-17.16Q58.11-24.70 64.81-27.37L64.81-27.37L64.81-27.37Q67.60-28.54 69.88-28.54L69.88-28.54L69.88-28.54Q72.41-28.54 72.41-26.52L72.41-26.52L72.41-26.52Q72.41-22.75 67.08-17.88L67.08-17.88L67.08-17.88Q61.75-13 55.12-10.46L55.12-10.46L55.12-10.46Q54.86-10.40 54.67-10.01L54.67-10.01L54.67-10.01Q53.69-7.35 53.69-5.27L53.69-5.27L53.69-5.27Q53.69-2.93 55.45-2.93L55.45-2.93L55.45-2.93Q58.24-2.93 62.79-7.15ZM80.02-8.64L81.19-10.86L83.20-14.30L83.20-14.30Q83.20-14.50 83.07-14.50L83.07-14.50L83.07-14.50Q82.94-14.50 82.75-14.30L82.75-14.30L82.75-14.30Q80.34-11.51 77.74-8.87L77.74-8.87L77.74-8.87Q75.14-6.24 73.78-5.00L73.78-5.00L72.34-3.77L72.34-3.77Q67.28 1.04 65.33 1.04L65.33 1.04L65.33 1.04Q64.42 1.04 64.42-0.13L64.42-0.13L64.42-0.13Q64.42-1.43 65.49-4.09L65.49-4.09L65.49-4.09Q66.56-6.76 67.67-8.84L67.67-8.84L68.70-10.86L68.70-10.86Q74.17-21.06 76.77-24.51L76.77-24.51L76.77-24.51Q78.06-26.20 79.95-27.33L79.95-27.33L79.95-27.33Q81.84-28.47 82.88-28.47L82.88-28.47L82.88-28.47Q83.53-28.47 83.53-28.02L83.53-28.02L83.53-28.02Q83.53-27.76 83.27-27.30L83.27-27.30L83.27-27.30Q83.14-27.04 80.60-22.98L80.60-22.98L80.60-22.98Q78.06-18.91 76.51-15.99L76.51-15.99L76.51-15.99Q72.22-8.13 72.22-6.96L72.22-6.96L72.22-6.96Q72.22-6.50 72.61-6.50L72.61-6.50L72.61-6.50Q73.19-6.50 74.62-7.67L74.62-7.67L74.62-7.67Q78.84-11.31 83.92-17.48L83.92-17.48L83.92-17.48Q86.71-20.48 89.77-25.29L89.77-25.29L89.77-25.29Q91.84-28.47 95.29-28.47L95.29-28.47L95.29-28.47Q95.88-28.47 95.88-27.95L95.88-27.95L95.36-26.71L95.36-26.71Q94.45-25.09 91.29-19.60L91.29-19.60L91.29-19.60Q88.14-14.11 87.69-13.33L87.69-13.33L87.69-13.33Q85.02-8.64 85.02-7.15L85.02-7.15L85.02-7.15Q85.02-6.57 85.41-6.57L85.41-6.57L85.41-6.57Q86.06-6.57 89.57-9.81L89.57-9.81L89.57-9.81Q92.30-12.54 96.79-17.68L96.79-17.68L96.79-17.68Q96.98-17.88 97.11-17.88L97.11-17.88L97.11-17.88Q97.24-17.88 97.24-17.62L97.24-17.62L97.24-17.62Q97.24-16.38 96.27-15.21L96.27-15.21L96.27-15.21Q91.46-9.88 87.75-6.31L87.75-6.31L87.75-6.31Q85.22-3.90 82.06-1.50L82.06-1.50L82.06-1.50Q78.91 0.91 77.48 0.91L77.48 0.91L77.48 0.91Q76.51 0.91 76.51-0.46L76.51-0.46L76.51-0.46Q76.51-1.24 77.68-3.83L77.68-3.83L77.68-3.83Q78.84-6.44 80.02-8.64L80.02-8.64ZM101.92-9.81L101.92-9.81L101.92-9.81Q104.65-12.54 109.14-17.68L109.14-17.68L109.14-17.68Q109.33-17.88 109.46-17.88L109.46-17.88L109.46-17.88Q109.59-17.88 109.59-17.62L109.59-17.62L109.59-17.62Q109.59-16.38 108.62-15.21L108.62-15.21L108.62-15.21Q103.81-9.88 100.10-6.31L100.10-6.31L100.10-6.31Q92.30 1.24 89.77 1.24L89.77 1.24L89.77 1.24Q88.86 1.24 88.86 0.07L88.86 0.07L88.86 0.07Q88.86-1.30 89.90-4.03L89.90-4.03L89.90-4.03Q90.94-6.76 91.98-8.84L91.98-8.84L93.02-10.86L93.02-10.86Q94.51-13.52 97.96-19.96L97.96-19.96L97.96-19.96Q101.40-26.39 104.62-32.11L104.62-32.11L104.62-32.11Q107.84-37.83 110.70-42.45L110.70-42.45L105.56-42.45L105.56-42.45Q104.91-42.45 104.91-42.77L104.91-42.77L104.91-42.77Q104.91-43.09 105.43-43.42L105.43-43.42L105.43-43.42Q105.95-43.75 106.54-43.75L106.54-43.75L106.54-43.75Q107.97-43.75 111.54-43.81L111.54-43.81L111.54-43.81Q114.73-48.82 117.00-51.74L117.00-51.74L117.00-51.74Q119.02-54.27 119.80-54.27L119.80-54.27L119.80-54.27Q120.25-54.27 120.25-53.69L120.25-53.69L120.25-53.69Q120.25-52.33 117.78-47.84L117.78-47.84L115.57-43.81L122.27-43.81L122.27-43.81Q122.85-43.81 122.85-43.48L122.85-43.48L122.85-43.48Q122.85-42.45 120.97-42.45L120.97-42.45L114.86-42.45L114.86-42.45Q99.84-13.97 99.06-12.61L99.06-12.61L99.06-12.61Q96.33-7.61 96.33-6.11L96.33-6.11L96.33-6.11Q96.33-5.66 96.66-5.66L96.66-5.66L96.66-5.66Q97.57-5.66 101.92-9.81ZM116.94-9.23L116.94-9.23L119.67-14.56L119.67-14.56Q119.67-14.76 119.54-14.76L119.54-14.76L119.54-14.76Q119.41-14.76 119.21-14.56L119.21-14.56L119.21-14.56Q116.81-11.77 114.14-9.07L114.14-9.07L114.14-9.07Q111.48-6.37 110.05-5.07L110.05-5.07L108.62-3.77L108.62-3.77Q103.74 0.84 101.73 0.84L101.73 0.84L101.73 0.84Q100.82 0.84 100.82-0.33L100.82-0.33L100.82-0.33Q100.82-1.63 101.86-4.26L101.86-4.26L101.86-4.26Q102.90-6.89 103.94-8.84L103.94-8.84L104.98-10.86L104.98-10.86Q110.44-21.06 113.04-24.51L113.04-24.51L113.04-24.51Q114.34-26.20 116.22-27.33L116.22-27.33L116.22-27.33Q118.11-28.47 119.15-28.47L119.15-28.47L119.15-28.47Q119.80-28.47 119.80-28.02L119.80-28.02L119.80-28.02Q119.80-27.76 119.54-27.30L119.54-27.30L119.54-27.30Q119.41-27.04 116.87-22.98L116.87-22.98L116.87-22.98Q114.34-18.91 112.78-15.99L112.78-15.99L112.78-15.99Q108.49-8.13 108.49-6.96L108.49-6.96L108.49-6.96Q108.49-6.50 108.88-6.50L108.88-6.50L108.88-6.50Q109.46-6.50 110.89-7.67L110.89-7.67L110.89-7.67Q115.12-11.31 120.19-17.48L120.19-17.48L120.19-17.48Q122.98-20.48 126.04-25.29L126.04-25.29L126.04-25.29Q126.88-26.59 128.54-27.53L128.54-27.53L128.54-27.53Q130.19-28.47 131.56-28.47L131.56-28.47L131.56-28.47Q132.15-28.47 132.15-27.95L132.15-27.95L131.63-26.71L131.63-26.71Q130.72-25.09 127.56-19.60L127.56-19.60L127.56-19.60Q124.41-14.11 124.02-13.39L124.02-13.39L124.02-13.39Q123.50-12.42 121.65-9.20L121.65-9.20L121.65-9.20Q119.80-5.98 119.02-4.62L119.02-4.62L119.02-4.62Q123.11-7.93 125.78-10.34L125.78-10.34L125.78-10.34Q128.64-13.33 132.47-17.68L132.47-17.68L132.47-17.68Q132.67-17.88 132.80-17.88L132.80-17.88L132.80-17.88Q132.93-17.88 132.93-17.62L132.93-17.62L132.93-17.62Q132.93-16.38 131.95-15.21L131.95-15.21L131.95-15.21Q129.09-12.09 127.01-9.88L127.01-9.88L127.01-9.88Q124.28-7.02 117.26-1.56L117.26-1.56L115.57 1.56L115.57 1.56Q103.03 24.64 98.28 31.59L98.28 31.59L98.28 31.59Q97.83 32.30 97.11 33.31L97.11 33.31L97.11 33.31Q96.40 34.32 94.77 36.04L94.77 36.04L94.77 36.04Q93.15 37.77 92.17 37.77L92.17 37.77L92.17 37.77Q90.61 37.77 90.61 33.28L90.61 33.28L90.61 33.28Q90.61 26.65 95.36 18.85L95.36 18.85L95.36 18.85Q100.49 10.46 111.22 1.63L111.22 1.63L111.22 1.63Q113.36-2.27 116.94-9.23ZM96.98 18.72L96.98 18.72L96.98 18.72Q96.46 19.50 95.75 20.77L95.75 20.77L95.75 20.77Q95.03 22.04 93.80 25.12L93.80 25.12L93.80 25.12Q92.56 28.21 92.56 30.29L92.56 30.29L92.56 30.29Q92.56 31.39 92.95 31.39L92.95 31.39L92.95 31.39Q93.28 31.39 93.93 30.78L93.93 30.78L93.93 30.78Q94.58 30.16 95.03 29.51L95.03 29.51L95.49 28.86L95.49 28.86Q101.92 18.79 109.46 4.81L109.46 4.81L109.46 4.81Q101.01 12.22 96.98 18.72Z" fill="#0a0a0a"></path></g></g><style>text {
  font-size: 64px;
  font-family: Arial Black;
  dominant-baseline: central;
  text-anchor: middle;
}</style></svg>